<?xml version="1.0" encoding="iso-8859-1"?>
<!-- Generator: Adobe Illustrator 19.0.0, SVG Export Plug-In . SVG Version: 6.00 Build 0)  -->
<svg xmlns="http://www.w3.org/2000/svg" xmlns:xlink="http://www.w3.org/1999/xlink" version="1.1" id="Layer_1" x="0px" y="0px" viewBox="0 0 512.008 512.008" style="enable-background:new 0 0 512.008 512.008;" xml:space="preserve">
<polygon style="fill:#EE534F;" points="274.459,133.882 159.833,99.556 274.459,65.231 "/>
<path style="fill:#85512D;" d="M357.995,255.229c16.886,21.744,31.473,45.207,41.648,62.848L344.625,419.68L173.38,364.012  l6.583-94.022c3.455-4.855,7.042-9.708,10.742-14.481l0.224-0.287l83.532-32.963L357.995,255.229z"/>
<path style="fill:#FFF9E1;" d="M190.93,255.223c3.777,0.04,7.542,1.583,10.308,4.629c5.608,6.172,15.312,6.172,20.92,0l0,0  c5.608-6.172,15.312-6.172,20.92,0c5.608,6.172,15.312,6.172,20.92,0c5.608-6.172,15.312-6.172,20.92,0l0,0  c5.608,6.172,15.312,6.172,20.92,0c5.608-6.172,15.312-6.172,20.92,0c5.608,6.172,15.312,6.172,20.92,0l0,0  c2.768-3.047,6.535-4.584,10.315-4.622c-25.081-32.3-55.234-60.809-83.536-60.809C246.159,194.42,216.009,222.924,190.93,255.223  L190.93,255.223z"/>
<path style="opacity:0.1;enable-background:new    ;" d="M203.391,364.012l5.402-77.15c0.793-11.336,4.855-22.224,11.812-31.209  c0.037-0.048,0.074-0.095,0.111-0.143l0.224-0.287l-0.001-0.001c20.687-26.64,44.823-50.683,68.525-58.294  c-5.034-1.617-10.048-2.508-15.005-2.508c-28.299,0-58.45,28.505-83.53,60.802l0.001,0.001l-0.224,0.287  c-3.699,4.773-7.287,9.625-10.742,14.481l-6.583,94.022l171.245,55.668l4.491-8.296L203.391,364.012z"/>
<path style="fill:#9E6036;" d="M175.89,297.549l74.553,34.329c6.083,7.834,11.891,15.872,17.34,23.817l-26.932,74.781H7.504  c0,0,26.044-52.577,61.479-98.293l0.243-0.311L175.89,297.549z"/>
<path style="fill:#B8703F;" d="M442.781,363.509c35.555,45.787,61.715,98.598,61.715,98.598H199.843  c0,0,26.044-52.577,61.479-98.293l0.243-0.311l87.062-41.376L442.781,363.509z"/>
<path style="fill:#FFF9E1;" d="M69.226,331.872c4.097,0.044,8.181,1.717,11.182,5.02c6.083,6.694,16.61,6.694,22.693,0l0,0  c6.083-6.694,16.61-6.694,22.693,0c6.083,6.694,16.61,6.694,22.693,0c6.083-6.694,16.61-6.694,22.693,0l0,0  c6.083,6.694,16.61,6.694,22.693,0c6.083-6.694,16.61-6.694,22.693,0c6.083,6.694,16.61,6.694,22.693,0l0,0  c3.003-3.305,7.089-4.972,11.189-5.013c-27.206-35.037-59.913-65.96-90.612-65.96C129.134,265.918,96.43,296.838,69.226,331.872  L69.226,331.872z"/>
<path style="opacity:0.1;enable-background:new    ;" d="M99.236,331.872L99.236,331.872c22.809-29.374,49.484-55.844,75.6-63.634  c-5.033-1.501-10.045-2.32-15.005-2.32c-30.696,0-63.4,30.919-90.606,65.953l0.001,0.001l-0.243,0.311  c-35.435,45.716-61.479,98.293-61.479,98.293h30.01c0,0,26.044-52.577,61.479-98.293L99.236,331.872z"/>
<path style="fill:#FFF9E1;" d="M261.564,363.502c4.097,0.044,8.181,1.717,11.182,5.02c6.083,6.694,16.61,6.694,22.693,0l0,0  c6.083-6.694,16.61-6.694,22.693,0c6.083,6.694,16.61,6.694,22.693,0s16.61-6.694,22.693,0l0,0c6.083,6.694,16.61,6.694,22.693,0  c6.083-6.694,16.61-6.694,22.693,0c6.083,6.694,16.61,6.694,22.693,0l0,0c3.003-3.305,7.089-4.972,11.189-5.013  c-27.206-35.037-59.913-65.96-90.612-65.96C321.472,297.549,288.768,328.469,261.564,363.502L261.564,363.502z"/>
<path style="opacity:0.1;enable-background:new    ;" d="M291.574,363.502L291.574,363.502c22.809-29.374,49.484-55.844,75.6-63.634  c-5.033-1.502-10.045-2.32-15.005-2.32c-30.696,0-63.4,30.919-90.606,65.952l0.001,0.001l-0.243,0.311  c-35.435,45.716-61.479,98.293-61.479,98.293h30.01c0,0,26.044-52.577,61.479-98.293L291.574,363.502z"/>
<path d="M3.691,436.937c1.197,0.707,2.51,1.042,3.805,1.042c2.568,0,5.07-1.319,6.469-3.69c3.63-6.152,6.796-12.317,9.859-18.278  c4.582-8.919,8.909-17.343,14.604-25.582c2.356-3.409,1.503-8.082-1.906-10.438c-3.408-2.356-8.083-1.503-10.437,1.906  c-6.252,9.044-11.008,18.303-15.608,27.258c-2.963,5.77-6.028,11.735-9.435,17.509C-1.063,430.232,0.122,434.832,3.691,436.937z"/>
<path d="M46.962,362.896c1.294,0.883,2.766,1.306,4.223,1.306c2.396,0,4.751-1.145,6.203-3.273  c5.171-7.576,10.096-14.425,14.973-20.83c0.93,0.433,1.777,1.048,2.493,1.837c4.318,4.753,10.478,7.479,16.899,7.479  s12.581-2.726,16.9-7.479c1.502-1.654,3.56-2.564,5.794-2.564s4.291,0.91,5.794,2.564c4.317,4.753,10.478,7.479,16.899,7.479  c6.421,0,12.581-2.726,16.899-7.479c1.502-1.654,3.56-2.564,5.794-2.564s4.291,0.91,5.794,2.564  c4.318,4.753,10.477,7.479,16.9,7.479c6.421,0,12.58-2.726,16.899-7.479c1.503-1.654,3.56-2.564,5.794-2.564  c2.234,0,4.291,0.91,5.794,2.564c4.317,4.753,10.478,7.479,16.899,7.479c6.421,0,12.581-2.726,16.899-7.479  c0.714-0.786,1.561-1.4,2.491-1.833c3.679,4.843,7.4,9.949,11.124,15.26c-0.925,1.166-1.852,2.339-2.781,3.536  c0,0-0.001,0.001-0.002,0.002l-0.245,0.314c-35.487,45.783-61.195,97.385-62.272,99.559c-1.839,3.713-0.32,8.214,3.393,10.053  c1.07,0.53,2.206,0.781,3.324,0.781c2.762,0,5.42-1.532,6.729-4.174c0.25-0.506,24.855-49.895,58.138-93.704  c0.928,0.433,1.774,1.047,2.49,1.835c4.318,4.753,10.478,7.479,16.899,7.479c6.421,0,12.581-2.726,16.9-7.479  c1.503-1.654,3.56-2.564,5.793-2.564c2.234,0,4.291,0.91,5.794,2.564c4.317,4.752,10.479,7.479,16.899,7.479  c6.422,0,12.581-2.726,16.9-7.479c1.503-1.654,3.56-2.564,5.794-2.564c2.233,0,4.29,0.91,5.793,2.564  c4.317,4.752,10.478,7.479,16.9,7.479c6.421,0,12.58-2.726,16.899-7.479c1.503-1.654,3.56-2.564,5.794-2.564  c2.233,0,4.29,0.91,5.793,2.564c4.317,4.752,10.479,7.479,16.9,7.479s12.58-2.726,16.899-7.479c0.715-0.787,1.561-1.401,2.492-1.833  c33.255,43.78,57.885,93.195,58.136,93.703c1.31,2.642,3.967,4.172,6.729,4.172c1.118,0,2.255-0.251,3.325-0.781  c3.712-1.84,5.231-6.34,3.392-10.052c-1.081-2.184-26.905-54.013-62.512-99.868c-14.973-19.281-29.408-34.536-43.243-45.746  c-9.574-16.522-24.346-40.387-41.542-62.532l-0.001-0.001c-29.772-38.34-57.3-59.538-81.96-63.152V49.901  c0-4.143-3.358-7.503-7.503-7.503s-7.503,3.359-7.503,7.503v9.745L157.681,92.369c-3.175,0.951-5.351,3.873-5.351,7.187  c0,3.314,2.175,6.236,5.351,7.187l109.274,32.723v48.009c-24.655,3.613-52.175,24.803-81.938,63.128  c-0.001,0.001-0.001,0.002-0.001,0.002l-0.241,0.309c-2.53,3.264-5.093,6.682-7.654,10.193c-5.909-1.784-11.676-2.692-17.291-2.692  c-28.576,0-61.053,23.166-96.531,68.854l-0.001,0.001c-5.985,7.681-11.972,15.923-18.303,25.198  C42.659,355.892,43.54,360.56,46.962,362.896z M430.262,359.847c-1.541,1.025-2.962,2.242-4.223,3.63  c-1.503,1.654-3.56,2.564-5.793,2.564c-2.234,0-4.291-0.91-5.794-2.564c-4.317-4.753-10.478-7.479-16.899-7.479  c-6.421,0-12.581,2.726-16.9,7.479c-1.503,1.654-3.56,2.564-5.793,2.564c-2.234,0-4.291-0.91-5.794-2.564  c-4.317-4.753-10.478-7.479-16.899-7.479c-6.422,0-12.581,2.726-16.9,7.479c-1.503,1.654-3.56,2.564-5.794,2.564  c-2.233,0-4.29-0.91-5.793-2.564c-4.317-4.753-10.478-7.479-16.9-7.479c-6.421,0-12.58,2.726-16.899,7.479  c-1.503,1.654-3.56,2.564-5.794,2.564c-2.233,0-4.29-0.91-5.793-2.564c-1.262-1.388-2.684-2.605-4.223-3.63  c29.456-35.896,56.338-54.794,78.093-54.794C373.924,305.052,400.807,323.951,430.262,359.847z M185.986,99.556l80.969-24.247  v48.494L185.986,99.556z M274.458,201.922c19.778,0,44.26,17.178,71.138,49.81c-1.256,0.891-2.422,1.92-3.47,3.074  c-1.272,1.4-3.015,2.172-4.907,2.172c-1.892,0-3.635-0.771-4.908-2.172c-4.091-4.504-9.928-7.086-16.012-7.086  c-6.085,0-11.921,2.583-16.013,7.086c-1.272,1.4-3.016,2.172-4.907,2.172c-1.893,0-3.635-0.771-4.908-2.172  c-4.091-4.504-9.928-7.086-16.012-7.086c-6.085,0-11.922,2.583-16.013,7.086c-1.272,1.4-3.015,2.172-4.908,2.172  c-1.893,0-3.635-0.771-4.908-2.172c-4.091-4.503-9.928-7.085-16.012-7.085s-11.921,2.583-16.013,7.086  c-1.271,1.4-3.015,2.172-4.907,2.172c-1.892,0-3.635-0.771-4.907-2.172c-1.048-1.154-2.214-2.183-3.469-3.075  C230.199,219.099,254.68,201.922,274.458,201.922z M193.992,263.555c0.623,0.347,1.195,0.793,1.693,1.341  c4.091,4.504,9.928,7.086,16.012,7.086s11.921-2.583,16.013-7.086c1.271-1.4,3.015-2.172,4.907-2.172s3.635,0.771,4.908,2.172  c4.091,4.504,9.928,7.086,16.012,7.086c6.085,0,11.921-2.583,16.012-7.086c1.272-1.4,3.016-2.172,4.908-2.172  s3.634,0.771,4.907,2.172c4.091,4.504,9.928,7.086,16.013,7.086c6.084,0,11.921-2.583,16.012-7.085  c1.272-1.4,3.016-2.172,4.908-2.172c1.892,0,3.634,0.771,4.907,2.172c4.092,4.503,9.929,7.085,16.013,7.085  c6.084,0,11.921-2.583,16.012-7.086c0.496-0.546,1.068-0.992,1.693-1.337c8.107,10.701,15.61,21.7,22.19,31.943  c-8.609-3.63-16.93-5.455-24.944-5.455c-25.134,0-53.288,17.93-83.845,53.335c-4.008-5.628-8.012-11.025-11.957-16.104  c-0.001,0-0.001-0.001-0.002-0.002c-22.997-29.615-44.731-49.755-64.961-60.27C192.27,265.84,193.132,264.688,193.992,263.555z   M159.83,273.421c21.755,0,48.638,18.9,78.093,54.795c-1.54,1.025-2.962,2.242-4.223,3.63c-1.502,1.653-3.56,2.564-5.794,2.564  s-4.291-0.91-5.794-2.564c-4.318-4.752-10.477-7.478-16.899-7.478c-6.421,0-12.581,2.726-16.899,7.478  c-1.503,1.654-3.56,2.564-5.794,2.564c-2.234,0-4.291-0.91-5.794-2.564c-4.317-4.753-10.477-7.478-16.899-7.478  c-6.421,0-12.581,2.726-16.899,7.478c-1.502,1.653-3.56,2.564-5.794,2.564s-4.291-0.91-5.794-2.564  c-4.318-4.752-10.478-7.478-16.899-7.478s-12.581,2.726-16.899,7.478c-1.503,1.654-3.56,2.564-5.794,2.564s-4.291-0.91-5.793-2.564  c-1.261-1.388-2.683-2.605-4.222-3.631C111.193,292.319,138.075,273.421,159.83,273.421z"/>
<g>
</g>
<g>
</g>
<g>
</g>
<g>
</g>
<g>
</g>
<g>
</g>
<g>
</g>
<g>
</g>
<g>
</g>
<g>
</g>
<g>
</g>
<g>
</g>
<g>
</g>
<g>
</g>
<g>
</g>
</svg>
